<svg class="recharts-surface" width="1152" height="400" viewBox="0 0 1152 400" style="width: 100%; height: 100%;"><title></title><desc></desc><defs><clipPath id="recharts1-clip"><rect x="80" y="20" height="345" width="1042"></rect></clipPath></defs><g class="recharts-cartesian-grid"><g class="recharts-cartesian-grid-horizontal"><line stroke-dasharray="3 3" stroke="#ccc" fill="none" x="80" y="20" width="1042" height="345" x1="80" y1="365" x2="1122" y2="365"></line><line stroke-dasharray="3 3" stroke="#ccc" fill="none" x="80" y="20" width="1042" height="345" x1="80" y1="278.75" x2="1122" y2="278.75"></line><line stroke-dasharray="3 3" stroke="#ccc" fill="none" x="80" y="20" width="1042" height="345" x1="80" y1="192.5" x2="1122" y2="192.5"></line><line stroke-dasharray="3 3" stroke="#ccc" fill="none" x="80" y="20" width="1042" height="345" x1="80" y1="106.25" x2="1122" y2="106.25"></line><line stroke-dasharray="3 3" stroke="#ccc" fill="none" x="80" y="20" width="1042" height="345" x1="80" y1="20" x2="1122" y2="20"></line></g><g class="recharts-cartesian-grid-vertical"><line stroke-dasharray="3 3" stroke="#ccc" fill="none" x="80" y="20" width="1042" height="345" x1="210.25" y1="20" x2="210.25" y2="365"></line><line stroke-dasharray="3 3" stroke="#ccc" fill="none" x="80" y="20" width="1042" height="345" x1="470.75" y1="20" x2="470.75" y2="365"></line><line stroke-dasharray="3 3" stroke="#ccc" fill="none" x="80" y="20" width="1042" height="345" x1="731.25" y1="20" x2="731.25" y2="365"></line><line stroke-dasharray="3 3" stroke="#ccc" fill="none" x="80" y="20" width="1042" height="345" x1="991.75" y1="20" x2="991.75" y2="365"></line><line stroke-dasharray="3 3" stroke="#ccc" fill="none" x="80" y="20" width="1042" height="345" x1="80" y1="20" x2="80" y2="365"></line><line stroke-dasharray="3 3" stroke="#ccc" fill="none" x="80" y="20" width="1042" height="345" x1="1122" y1="20" x2="1122" y2="365"></line></g></g><g class="recharts-layer recharts-cartesian-axis recharts-xAxis xAxis"><line orientation="bottom" width="1042" height="30" x="80" y="365" class="recharts-cartesian-axis-line" stroke="#666" fill="none" x1="80" y1="365" x2="1122" y2="365"></line><g class="recharts-cartesian-axis-ticks"><g class="recharts-layer recharts-cartesian-axis-tick"><line orientation="bottom" width="1042" height="30" x="80" y="365" class="recharts-cartesian-axis-tick-line" stroke="#666" fill="none" x1="210.25" y1="371" x2="210.25" y2="365"></line><text orientation="bottom" width="1042" height="30" stroke="none" x="210.25" y="373" class="recharts-text recharts-cartesian-axis-tick-value" text-anchor="middle" fill="#666"><tspan x="210.25" dy="0.71em">2019</tspan></text></g><g class="recharts-layer recharts-cartesian-axis-tick"><line orientation="bottom" width="1042" height="30" x="80" y="365" class="recharts-cartesian-axis-tick-line" stroke="#666" fill="none" x1="470.75" y1="371" x2="470.75" y2="365"></line><text orientation="bottom" width="1042" height="30" stroke="none" x="470.75" y="373" class="recharts-text recharts-cartesian-axis-tick-value" text-anchor="middle" fill="#666"><tspan x="470.75" dy="0.71em">2020</tspan></text></g><g class="recharts-layer recharts-cartesian-axis-tick"><line orientation="bottom" width="1042" height="30" x="80" y="365" class="recharts-cartesian-axis-tick-line" stroke="#666" fill="none" x1="731.25" y1="371" x2="731.25" y2="365"></line><text orientation="bottom" width="1042" height="30" stroke="none" x="731.25" y="373" class="recharts-text recharts-cartesian-axis-tick-value" text-anchor="middle" fill="#666"><tspan x="731.25" dy="0.71em">2021</tspan></text></g><g class="recharts-layer recharts-cartesian-axis-tick"><line orientation="bottom" width="1042" height="30" x="80" y="365" class="recharts-cartesian-axis-tick-line" stroke="#666" fill="none" x1="991.75" y1="371" x2="991.75" y2="365"></line><text orientation="bottom" width="1042" height="30" stroke="none" x="991.75" y="373" class="recharts-text recharts-cartesian-axis-tick-value" text-anchor="middle" fill="#666"><tspan x="991.75" dy="0.71em">2022</tspan></text></g></g></g><g class="recharts-layer recharts-cartesian-axis recharts-yAxis yAxis"><line orientation="left" width="60" height="345" x="20" y="20" class="recharts-cartesian-axis-line" stroke="#666" fill="none" x1="80" y1="20" x2="80" y2="365"></line><g class="recharts-cartesian-axis-ticks"><g class="recharts-layer recharts-cartesian-axis-tick"><line orientation="left" width="60" height="345" x="20" y="20" class="recharts-cartesian-axis-tick-line" stroke="#666" fill="none" x1="74" y1="365" x2="80" y2="365"></line><text orientation="left" width="60" height="345" stroke="none" x="72" y="365" class="recharts-text recharts-cartesian-axis-tick-value" text-anchor="end" fill="#666"><tspan x="72" dy="0.355em">0</tspan></text></g><g class="recharts-layer recharts-cartesian-axis-tick"><line orientation="left" width="60" height="345" x="20" y="20" class="recharts-cartesian-axis-tick-line" stroke="#666" fill="none" x1="74" y1="278.75" x2="80" y2="278.75"></line><text orientation="left" width="60" height="345" stroke="none" x="72" y="278.75" class="recharts-text recharts-cartesian-axis-tick-value" text-anchor="end" fill="#666"><tspan x="72" dy="0.355em">6</tspan></text></g><g class="recharts-layer recharts-cartesian-axis-tick"><line orientation="left" width="60" height="345" x="20" y="20" class="recharts-cartesian-axis-tick-line" stroke="#666" fill="none" x1="74" y1="192.5" x2="80" y2="192.5"></line><text orientation="left" width="60" height="345" stroke="none" x="72" y="192.5" class="recharts-text recharts-cartesian-axis-tick-value" text-anchor="end" fill="#666"><tspan x="72" dy="0.355em">12</tspan></text></g><g class="recharts-layer recharts-cartesian-axis-tick"><line orientation="left" width="60" height="345" x="20" y="20" class="recharts-cartesian-axis-tick-line" stroke="#666" fill="none" x1="74" y1="106.25" x2="80" y2="106.25"></line><text orientation="left" width="60" height="345" stroke="none" x="72" y="106.25" class="recharts-text recharts-cartesian-axis-tick-value" text-anchor="end" fill="#666"><tspan x="72" dy="0.355em">18</tspan></text></g><g class="recharts-layer recharts-cartesian-axis-tick"><line orientation="left" width="60" height="345" x="20" y="20" class="recharts-cartesian-axis-tick-line" stroke="#666" fill="none" x1="74" y1="20" x2="80" y2="20"></line><text orientation="left" width="60" height="345" stroke="none" x="72" y="20" class="recharts-text recharts-cartesian-axis-tick-value" text-anchor="end" fill="#666"><tspan x="72" dy="0.355em">24</tspan></text></g></g></g><g class="recharts-layer recharts-bar"><g class="recharts-layer recharts-bar-rectangles"><g class="recharts-layer"><g class="recharts-layer recharts-bar-rectangle"><path x="106.05" y="192.5" width="102" height="172.5" radius="0" name="2019" fill="#8E9196" class="recharts-rectangle" d="M 106.05,192.5 h 102 v 172.5 h -102 Z"></path></g><g class="recharts-layer recharts-bar-rectangle"><path x="366.55" y="250.00000000000003" width="102" height="114.99999999999997" radius="0" name="2020" fill="#8E9196" class="recharts-rectangle" d="M 366.55,250.00000000000003 h 102 v 114.99999999999997 h -102 Z"></path></g><g class="recharts-layer recharts-bar-rectangle"><path x="627.05" y="149.375" width="102" height="215.625" radius="0" name="2021" fill="#8E9196" class="recharts-rectangle" d="M 627.05,149.375 h 102 v 215.625 h -102 Z"></path></g><g class="recharts-layer recharts-bar-rectangle"><path x="887.55" y="221.24999999999997" width="102" height="143.75000000000003" radius="0" name="2022" fill="#8E9196" class="recharts-rectangle" d="M 887.55,221.24999999999997 h 102 v 143.75000000000003 h -102 Z"></path></g></g></g><g class="recharts-layer"></g></g><g class="recharts-layer recharts-bar"><g class="recharts-layer recharts-bar-rectangles"><g class="recharts-layer"><g class="recharts-layer recharts-bar-rectangle"><path x="212.05" y="149.375" width="102" height="215.625" radius="0" name="2019" fill="#9b87f5" class="recharts-rectangle" d="M 212.05,149.375 h 102 v 215.625 h -102 Z"></path></g><g class="recharts-layer recharts-bar-rectangle"><path x="472.55" y="163.74999999999997" width="102" height="201.25000000000003" radius="0" name="2020" fill="#9b87f5" class="recharts-rectangle" d="M 472.55,163.74999999999997 h 102 v 201.25000000000003 h -102 Z"></path></g><g class="recharts-layer recharts-bar-rectangle"><path x="733.05" y="48.75" width="102" height="316.25" radius="0" name="2021" fill="#9b87f5" class="recharts-rectangle" d="M 733.05,48.75 h 102 v 316.25 h -102 Z"></path></g><g class="recharts-layer recharts-bar-rectangle"><path x="993.55" y="106.25" width="102" height="258.75" radius="0" name="2022" fill="#9b87f5" class="recharts-rectangle" d="M 993.55,106.25 h 102 v 258.75 h -102 Z"></path></g></g></g><g class="recharts-layer"></g></g></svg>
  