<svg width="97" height="97" viewBox="0 0 97 97" fill="none" xmlns="http://www.w3.org/2000/svg">
<g filter="url(#filter0_d_6408_15614)">
<circle cx="48.7988" cy="48.436" r="28" fill="black"/>
<circle cx="48.7988" cy="48.436" r="28" fill="white" fill-opacity="0.08"/>
<circle cx="48.7988" cy="48.436" r="28" fill="url(#paint0_linear_6408_15614)" fill-opacity="0.22"/>
<circle cx="48.7988" cy="48.436" r="27.5" stroke="url(#paint1_linear_6408_15614)" stroke-opacity="0.3"/>
</g>
<path fill-rule="evenodd" clip-rule="evenodd" d="M48.7988 62.436C56.5308 62.436 62.7988 56.168 62.7988 48.436C62.7988 40.704 56.5308 34.436 48.7988 34.436C41.0668 34.436 34.7988 40.704 34.7988 48.436C34.7988 56.168 41.0668 62.436 48.7988 62.436ZM54.3959 45.542L53.0716 44.2177C52.7865 43.9326 52.9888 43.436 53.4026 43.436H57.3479C57.6054 43.436 57.8077 43.6384 57.7985 43.8959V47.8503C57.7985 48.255 57.3019 48.4573 57.0168 48.1722L55.6925 46.8479L50.5517 51.9795C50.1931 52.3382 49.6137 52.3382 49.255 51.9795L46.2294 48.9539L41.3645 53.828C41.0059 54.1867 40.4265 54.1867 40.0678 53.828C39.7092 53.4693 39.7092 52.89 40.0678 52.5313L45.5857 47.0042C45.7575 46.832 45.9908 46.7353 46.234 46.7353C46.4773 46.7353 46.7106 46.832 46.8824 47.0042L49.908 50.0299L54.3959 45.542Z" fill="white" fill-opacity="0.7"/>
<defs>
<filter id="filter0_d_6408_15614" x="0.798828" y="0.436035" width="96" height="96" filterUnits="userSpaceOnUse" color-interpolation-filters="sRGB">
<feFlood flood-opacity="0" result="BackgroundImageFix"/>
<feColorMatrix in="SourceAlpha" type="matrix" values="0 0 0 0 0 0 0 0 0 0 0 0 0 0 0 0 0 0 127 0" result="hardAlpha"/>
<feOffset/>
<feGaussianBlur stdDeviation="10"/>
<feComposite in2="hardAlpha" operator="out"/>
<feColorMatrix type="matrix" values="0 0 0 0 0 0 0 0 0 0 0 0 0 0 0 0 0 0 0.55 0"/>
<feBlend mode="normal" in2="BackgroundImageFix" result="effect1_dropShadow_6408_15614"/>
<feBlend mode="normal" in="SourceGraphic" in2="effect1_dropShadow_6408_15614" result="shape"/>
</filter>
<linearGradient id="paint0_linear_6408_15614" x1="48.7988" y1="76.436" x2="48.7988" y2="40.736" gradientUnits="userSpaceOnUse">
<stop stop-color="#A7BF8A"/>
<stop offset="1" stop-color="#A7BF8A" stop-opacity="0.4"/>
</linearGradient>
<linearGradient id="paint1_linear_6408_15614" x1="48.7988" y1="20.436" x2="48.7988" y2="98.836" gradientUnits="userSpaceOnUse">
<stop stop-color="white"/>
<stop offset="1" stop-color="white" stop-opacity="0"/>
</linearGradient>
</defs>
</svg>
