<svg xmlns="http://www.w3.org/2000/svg" width="60" height="60" fill="none"><rect width="60" height="60" x="60" fill="url(#a)" rx="30" transform="rotate(90 60 0)"/><path fill="#fff" d="M21.015 26.336v-3.074H12.99v3.074h1.841v6.577h-1.84v3.075h8.024v-3.075h-1.84v-6.577h1.84zm8.856 1.807c-.496-.144-3.048-.875-3.49-1.019-.442-.144-.803-.352-.803-.613 0-.262.406-.541 1.227-.541 2.588 0 3.832 1.596 3.832 1.596s.14.187.187.254h2.497v-4.355h-2.68v.792c-.206-.142-1.717-1.128-4.061-1.128-3.094 0-4.816 1.605-4.816 4.004 0 2.399 2.173 3.391 2.777 3.643.605.253 2.967.92 3.977 1.236 1.01.316 1.38.541 1.38.703 0 .163-.442.587-1.704.587-2.2 0-3.332-1.297-3.53-1.548v-.002a7.87 7.87 0 0 1-.307-.43H21.86v4.65h2.803v-.97c.326.216 1.996 1.258 4 1.258 2.236 0 5.086-.974 5.086-4.013 0-3.04-3.382-3.96-3.878-4.104zm10.996-5.057c-3.728 0-6.786 1.864-6.786 6.623 0 4.758 3.32 6.54 6.803 6.54s6.77-1.765 6.77-6.491-3.287-6.672-6.787-6.672zm.033 9.991c-1.275 0-2.093-.294-2.093-3.385 0-3.09.605-3.417 2.142-3.417.932 0 2.06.065 2.06 3.32 0 3.254-.833 3.482-2.109 3.482zm-22.563-11.22a14.046 14.046 0 0 1 3.05-3.246c.478.353.986.674 1.52.96a29.997 29.997 0 0 0-1.829 2.286h.537c.322-.434.989-1.308 1.691-2.082a13.94 13.94 0 0 0 2.436.921 18.36 18.36 0 0 0-.498 1.16h.466c.107-.266.264-.638.46-1.049 1.086.266 2.225.415 3.39.437v.613h.432v-.61a15.655 15.655 0 0 0 3.37-.388c.185.39.334.742.436.998h.467a18.39 18.39 0 0 0-.472-1.104 14.04 14.04 0 0 0 2.482-.898 29.6 29.6 0 0 1 1.618 2.002h.537a30.232 30.232 0 0 0-1.752-2.201 12.433 12.433 0 0 0 1.683-1.045 14.044 14.044 0 0 1 3.05 3.246h.52c-2.56-3.952-7.008-6.572-12.057-6.572s-9.497 2.62-12.058 6.572h.521zm7.598-1.556a13.561 13.561 0 0 1-2.32-.857c.1-.104.2-.204.298-.299 1.003-.967 2.653-2.03 3.015-2.258.294.16.614.297.955.405a28.03 28.03 0 0 0-1.35 1.945c-.22.348-.421.714-.598 1.064zm3.624.51a15.167 15.167 0 0 1-3.193-.401 11.9 11.9 0 0 1 .532-.94 26.943 26.943 0 0 1 1.436-2.054c.391.091.802.15 1.225.168v3.227zm.433.002V17.59a6.757 6.757 0 0 0 1.216-.13c.224.29.785 1.035 1.402 2.01.203.321.39.661.557.99a15.242 15.242 0 0 1-3.175.354zm3.61-.457a12.806 12.806 0 0 0-.626-1.119 28.14 28.14 0 0 0-1.308-1.888 5.558 5.558 0 0 0 1.02-.394c.507.325 1.982 1.298 2.908 2.19.123.119.247.246.371.377-.748.345-1.54.625-2.366.834zm4.396-2.016a12.03 12.03 0 0 1-1.622.984 12.9 12.9 0 0 0-.48-.49c-.866-.835-2.155-1.711-2.787-2.122.215-.14.411-.293.586-.46a13.88 13.88 0 0 1 4.303 2.088zm-8.124-2.622c1.143 0 2.254.14 3.318.4-.807.656-2.017 1.041-3.318 1.041-1.307 0-2.513-.383-3.32-1.04a13.928 13.928 0 0 1 3.32-.401zm-3.821.533a3.9 3.9 0 0 0 .467.382c-.572.368-1.982 1.308-2.908 2.2-.133.13-.267.266-.401.408a11.978 11.978 0 0 1-1.46-.9 13.879 13.879 0 0 1 4.302-2.09zM41.411 37.43a14.045 14.045 0 0 1-2.975 3.188 12.404 12.404 0 0 0-1.758-1.102c.75-.845 1.42-1.746 1.669-2.086h-.54a29.053 29.053 0 0 1-1.532 1.886 14.02 14.02 0 0 0-2.482-.898 18.1 18.1 0 0 0 .426-.988h-.467c-.1.242-.231.548-.39.883a15.65 15.65 0 0 0-3.37-.387v-.496h-.433v.498a15.574 15.574 0 0 0-3.39.437 18.537 18.537 0 0 1-.413-.935h-.468c.104.26.258.63.453 1.045-.851.236-1.668.544-2.436.922A28.667 28.667 0 0 1 21.7 37.43h-.539c.257.352.966 1.303 1.746 2.172-.562.3-1.096.64-1.595 1.016a14.039 14.039 0 0 1-2.976-3.188h-.52c2.56 3.95 7.009 6.57 12.058 6.57 5.049 0 9.497-2.62 12.057-6.571h-.52zm-7.81 1.386a13.59 13.59 0 0 1 2.367.834c-.125.131-.25.258-.373.377-.922.89-2.393 1.86-2.904 2.188a5.495 5.495 0 0 0-1.02-.395c.275-.364.77-1.04 1.304-1.885.232-.367.443-.753.626-1.12zm-3.61-.457a15.21 15.21 0 0 1 3.176.354c-.167.329-.354.669-.557.99a27.173 27.173 0 0 1-1.401 2.008 6.812 6.812 0 0 0-1.217-.128V38.36zm-.432.002v3.227a6.71 6.71 0 0 0-1.227.167 26.938 26.938 0 0 1-1.434-2.052 11.869 11.869 0 0 1-.532-.941 15.164 15.164 0 0 1 3.193-.4zm-3.624.51c.176.35.377.716.597 1.064a28.002 28.002 0 0 0 1.35 1.944 5.282 5.282 0 0 0-.955.406c-.363-.23-2.012-1.291-3.015-2.258a11.36 11.36 0 0 1-.297-.299c.732-.35 1.51-.638 2.32-.857zm-4.263 2.018c.482-.355.996-.675 1.538-.958.134.142.268.279.402.408.926.892 2.335 1.831 2.907 2.2-.204.143-.39.3-.555.47a13.886 13.886 0 0 1-4.292-2.12zm8.202 2.68c-1.18 0-2.327-.149-3.423-.427.8-.702 2.07-1.129 3.423-1.129 1.35 0 2.622.427 3.422 1.13a13.899 13.899 0 0 1-3.422.426zm3.91-.56a3.902 3.902 0 0 0-.672-.55c.633-.412 1.92-1.287 2.784-2.12.16-.154.32-.32.48-.491.6.304 1.17.651 1.7 1.04a13.884 13.884 0 0 1-4.293 2.121z"/><defs><linearGradient id="a" x1="91.875" x2="91.875" y1="0" y2="60" gradientUnits="userSpaceOnUse"><stop stop-color="#2D63A7"/><stop offset=".489" stop-color="#1C85C7"/><stop offset="1" stop-color="#7999C1"/></linearGradient></defs></svg>