<svg xmlns="http://www.w3.org/2000/svg" width="60" height="60" fill="none"><circle cx="30" cy="30" r="30" fill="url(#a)"/><path fill="#fff" fill-rule="evenodd" d="M41.445 17.482a1.498 1.498 0 0 0-1.26-.301 11.959 11.959 0 0 1-9.33-1.913 1.496 1.496 0 0 0-1.71 0 11.976 11.976 0 0 1-9.33 1.913 1.494 1.494 0 0 0-1.67.825 1.51 1.51 0 0 0-.145.65v11.216a13.592 13.592 0 0 0 1.495 6.206 13.535 13.535 0 0 0 4.16 4.83l5.475 3.915a1.496 1.496 0 0 0 1.74 0l5.475-3.915a13.536 13.536 0 0 0 4.16-4.83A13.592 13.592 0 0 0 42 29.872V18.656a1.51 1.51 0 0 0-.555-1.174zm-5.189 10.155a1.571 1.571 0 0 0 0-2.213 1.55 1.55 0 0 0-2.2 0l-5.898 5.934-2.011-2.022a1.549 1.549 0 0 0-2.2 0 1.571 1.571 0 0 0 0 2.212l3.11 3.13a1.55 1.55 0 0 0 2.2 0l7-7.041z" clip-rule="evenodd"/><defs><linearGradient id="a" x1="30" x2="30" y1="-2.5" y2="80" gradientUnits="userSpaceOnUse"><stop stop-color="#2D9B95"/><stop offset="1" stop-color="#93BC63"/></linearGradient></defs></svg>