<svg width="512" height="436" viewBox="0 0 512 436" fill="none" xmlns="http://www.w3.org/2000/svg">
<line x1="24" y1="344.877" x2="488" y2="344.877" stroke="url(#paint0_linear_8956_2436)" stroke-opacity="0.32"/>
<path d="M107.41 378.5V366.864H112.069C112.925 366.864 113.639 366.991 114.211 367.244C114.783 367.498 115.213 367.85 115.501 368.301C115.789 368.748 115.933 369.263 115.933 369.847C115.933 370.301 115.842 370.701 115.66 371.045C115.478 371.386 115.228 371.667 114.91 371.886C114.595 372.102 114.236 372.256 113.83 372.347V372.46C114.273 372.479 114.688 372.604 115.075 372.835C115.465 373.066 115.781 373.39 116.023 373.807C116.266 374.22 116.387 374.712 116.387 375.284C116.387 375.902 116.234 376.453 115.927 376.938C115.624 377.419 115.175 377.799 114.58 378.08C113.986 378.36 113.253 378.5 112.381 378.5H107.41ZM109.87 376.489H111.876C112.561 376.489 113.061 376.358 113.376 376.097C113.69 375.831 113.847 375.479 113.847 375.04C113.847 374.718 113.77 374.434 113.614 374.188C113.459 373.941 113.237 373.748 112.95 373.608C112.665 373.468 112.326 373.398 111.933 373.398H109.87V376.489ZM109.87 371.733H111.694C112.031 371.733 112.33 371.674 112.592 371.557C112.857 371.436 113.065 371.265 113.217 371.045C113.372 370.826 113.45 370.562 113.45 370.256C113.45 369.835 113.3 369.496 113.001 369.239C112.705 368.981 112.285 368.852 111.739 368.852H109.87V371.733ZM121.92 378.67C121.022 378.67 120.249 378.489 119.602 378.125C118.958 377.758 118.461 377.239 118.113 376.568C117.764 375.894 117.59 375.097 117.59 374.176C117.59 373.278 117.764 372.491 118.113 371.812C118.461 371.134 118.952 370.606 119.585 370.227C120.221 369.848 120.967 369.659 121.823 369.659C122.399 369.659 122.935 369.752 123.431 369.938C123.931 370.119 124.367 370.394 124.738 370.761C125.113 371.129 125.405 371.591 125.613 372.148C125.821 372.701 125.925 373.348 125.925 374.091V374.756H118.556V373.256H123.647C123.647 372.907 123.571 372.598 123.42 372.33C123.268 372.061 123.058 371.85 122.789 371.699C122.524 371.544 122.215 371.466 121.863 371.466C121.496 371.466 121.17 371.551 120.886 371.722C120.605 371.888 120.386 372.114 120.227 372.398C120.067 372.678 119.986 372.991 119.982 373.335V374.761C119.982 375.193 120.062 375.566 120.221 375.881C120.384 376.195 120.613 376.438 120.908 376.608C121.204 376.778 121.554 376.864 121.96 376.864C122.228 376.864 122.475 376.826 122.698 376.75C122.922 376.674 123.113 376.561 123.272 376.409C123.431 376.258 123.552 376.072 123.636 375.852L125.874 376C125.761 376.538 125.528 377.008 125.175 377.409C124.827 377.807 124.376 378.117 123.823 378.341C123.274 378.561 122.639 378.67 121.92 378.67ZM129.925 373.455V378.5H127.505V369.773H129.812V371.312H129.914C130.107 370.805 130.431 370.403 130.886 370.108C131.34 369.809 131.891 369.659 132.539 369.659C133.145 369.659 133.674 369.792 134.124 370.057C134.575 370.322 134.925 370.701 135.175 371.193C135.425 371.682 135.55 372.265 135.55 372.943V378.5H133.13V373.375C133.134 372.841 132.997 372.424 132.721 372.125C132.444 371.822 132.064 371.67 131.579 371.67C131.253 371.67 130.965 371.741 130.715 371.881C130.469 372.021 130.276 372.225 130.136 372.494C129.999 372.759 129.929 373.08 129.925 373.455ZM141.401 378.67C140.507 378.67 139.738 378.481 139.094 378.102C138.454 377.72 137.962 377.189 137.617 376.511C137.276 375.833 137.106 375.053 137.106 374.17C137.106 373.277 137.278 372.492 137.623 371.818C137.971 371.14 138.466 370.612 139.106 370.233C139.746 369.85 140.507 369.659 141.39 369.659C142.151 369.659 142.818 369.797 143.39 370.074C143.962 370.35 144.415 370.739 144.748 371.239C145.081 371.739 145.265 372.326 145.299 373H143.015C142.951 372.564 142.78 372.214 142.504 371.949C142.231 371.68 141.873 371.545 141.43 371.545C141.055 371.545 140.727 371.648 140.447 371.852C140.17 372.053 139.954 372.347 139.799 372.733C139.644 373.119 139.566 373.587 139.566 374.136C139.566 374.693 139.642 375.167 139.793 375.557C139.949 375.947 140.166 376.244 140.447 376.449C140.727 376.653 141.055 376.756 141.43 376.756C141.706 376.756 141.954 376.699 142.174 376.585C142.397 376.472 142.581 376.307 142.725 376.091C142.873 375.871 142.969 375.608 143.015 375.301H145.299C145.261 375.968 145.079 376.555 144.754 377.062C144.432 377.566 143.987 377.96 143.418 378.244C142.85 378.528 142.178 378.67 141.401 378.67ZM149.269 373.455V378.5H146.849V366.864H149.201V371.312H149.303C149.5 370.797 149.818 370.394 150.258 370.102C150.697 369.807 151.248 369.659 151.911 369.659C152.517 369.659 153.046 369.792 153.496 370.057C153.951 370.318 154.303 370.695 154.553 371.188C154.807 371.676 154.932 372.261 154.928 372.943V378.5H152.508V373.375C152.512 372.837 152.375 372.419 152.099 372.119C151.826 371.82 151.443 371.67 150.951 371.67C150.621 371.67 150.33 371.741 150.076 371.881C149.826 372.021 149.629 372.225 149.485 372.494C149.345 372.759 149.273 373.08 149.269 373.455ZM156.833 378.5V369.773H159.14V371.312H159.242C159.424 370.801 159.727 370.398 160.151 370.102C160.576 369.807 161.083 369.659 161.674 369.659C162.272 369.659 162.782 369.809 163.202 370.108C163.623 370.403 163.903 370.805 164.043 371.312H164.134C164.312 370.812 164.634 370.413 165.1 370.114C165.57 369.811 166.125 369.659 166.765 369.659C167.579 369.659 168.24 369.919 168.748 370.438C169.259 370.953 169.515 371.684 169.515 372.631V378.5H167.1V373.108C167.1 372.623 166.971 372.259 166.714 372.017C166.456 371.775 166.134 371.653 165.748 371.653C165.308 371.653 164.966 371.794 164.719 372.074C164.473 372.35 164.35 372.716 164.35 373.17V378.5H162.004V373.057C162.004 372.629 161.88 372.288 161.634 372.034C161.392 371.78 161.072 371.653 160.674 371.653C160.405 371.653 160.163 371.722 159.947 371.858C159.735 371.991 159.566 372.178 159.441 372.42C159.316 372.659 159.254 372.939 159.254 373.261V378.5H156.833ZM173.915 378.665C173.359 378.665 172.862 378.568 172.427 378.375C171.991 378.178 171.647 377.888 171.393 377.506C171.143 377.119 171.018 376.638 171.018 376.062C171.018 375.578 171.107 375.17 171.285 374.841C171.463 374.511 171.705 374.246 172.012 374.045C172.319 373.845 172.667 373.693 173.058 373.591C173.451 373.489 173.864 373.417 174.296 373.375C174.804 373.322 175.213 373.273 175.523 373.227C175.834 373.178 176.059 373.106 176.2 373.011C176.34 372.917 176.41 372.777 176.41 372.591V372.557C176.41 372.197 176.296 371.919 176.069 371.722C175.845 371.525 175.527 371.426 175.114 371.426C174.679 371.426 174.332 371.523 174.075 371.716C173.817 371.905 173.647 372.144 173.563 372.432L171.325 372.25C171.438 371.72 171.662 371.261 171.995 370.875C172.328 370.485 172.758 370.186 173.285 369.977C173.815 369.765 174.429 369.659 175.126 369.659C175.611 369.659 176.075 369.716 176.518 369.83C176.965 369.943 177.361 370.119 177.705 370.358C178.054 370.597 178.328 370.903 178.529 371.278C178.73 371.65 178.83 372.095 178.83 372.614V378.5H176.535V377.29H176.467C176.326 377.562 176.139 377.803 175.904 378.011C175.669 378.216 175.387 378.377 175.058 378.494C174.728 378.608 174.347 378.665 173.915 378.665ZM174.609 376.994C174.965 376.994 175.279 376.924 175.552 376.784C175.825 376.64 176.039 376.447 176.194 376.205C176.349 375.962 176.427 375.687 176.427 375.381V374.455C176.351 374.504 176.247 374.549 176.114 374.591C175.986 374.629 175.84 374.665 175.677 374.699C175.514 374.729 175.351 374.758 175.188 374.784C175.025 374.807 174.878 374.828 174.745 374.847C174.461 374.888 174.213 374.955 174.001 375.045C173.789 375.136 173.624 375.259 173.506 375.415C173.389 375.566 173.33 375.756 173.33 375.983C173.33 376.312 173.45 376.564 173.688 376.739C173.931 376.909 174.237 376.994 174.609 376.994ZM180.708 378.5V369.773H183.055V371.295H183.146C183.305 370.754 183.572 370.345 183.947 370.068C184.322 369.788 184.754 369.648 185.242 369.648C185.363 369.648 185.494 369.655 185.634 369.67C185.774 369.686 185.897 369.706 186.004 369.733V371.881C185.89 371.847 185.733 371.816 185.532 371.79C185.331 371.763 185.147 371.75 184.981 371.75C184.625 371.75 184.307 371.828 184.026 371.983C183.75 372.134 183.53 372.347 183.367 372.619C183.208 372.892 183.129 373.206 183.129 373.562V378.5H180.708ZM189.448 375.989L189.454 373.085H189.806L192.602 369.773H195.38L191.624 374.159H191.05L189.448 375.989ZM187.255 378.5V366.864H189.675V378.5H187.255ZM192.71 378.5L190.141 374.699L191.755 372.989L195.545 378.5H192.71ZM100.087 396.682C100.087 395.25 100.273 393.934 100.644 392.733C101.019 391.528 101.553 390.42 102.246 389.409H103.428C103.156 389.784 102.9 390.246 102.661 390.795C102.426 391.341 102.22 391.941 102.042 392.597C101.864 393.248 101.724 393.922 101.621 394.619C101.523 395.316 101.474 396.004 101.474 396.682C101.474 397.583 101.561 398.498 101.735 399.426C101.909 400.354 102.144 401.216 102.44 402.011C102.735 402.807 103.065 403.455 103.428 403.955H102.246C101.553 402.943 101.019 401.837 100.644 400.636C100.273 399.432 100.087 398.114 100.087 396.682ZM105.589 402.5V390.864H109.657C110.468 390.864 111.136 391.004 111.663 391.284C112.189 391.561 112.581 391.934 112.839 392.403C113.096 392.869 113.225 393.386 113.225 393.955C113.225 394.455 113.136 394.867 112.958 395.193C112.784 395.519 112.553 395.777 112.265 395.966C111.981 396.155 111.672 396.295 111.339 396.386V396.5C111.695 396.523 112.053 396.648 112.413 396.875C112.772 397.102 113.074 397.428 113.316 397.852C113.558 398.277 113.68 398.795 113.68 399.409C113.68 399.992 113.547 400.517 113.282 400.983C113.017 401.449 112.598 401.818 112.026 402.091C111.454 402.364 110.71 402.5 109.793 402.5H105.589ZM106.998 401.25H109.793C110.714 401.25 111.367 401.072 111.754 400.716C112.144 400.356 112.339 399.92 112.339 399.409C112.339 399.015 112.238 398.652 112.038 398.318C111.837 397.981 111.551 397.712 111.18 397.511C110.808 397.307 110.369 397.205 109.862 397.205H106.998V401.25ZM106.998 395.977H109.612C110.036 395.977 110.418 395.894 110.759 395.727C111.104 395.561 111.377 395.326 111.577 395.023C111.782 394.72 111.884 394.364 111.884 393.955C111.884 393.443 111.706 393.009 111.35 392.653C110.994 392.294 110.43 392.114 109.657 392.114H106.998V395.977ZM122.359 393.773C122.29 393.197 122.014 392.75 121.529 392.432C121.044 392.114 120.45 391.955 119.745 391.955C119.23 391.955 118.779 392.038 118.393 392.205C118.01 392.371 117.711 392.6 117.495 392.892C117.283 393.184 117.177 393.515 117.177 393.886C117.177 394.197 117.251 394.464 117.398 394.688C117.55 394.907 117.743 395.091 117.978 395.239C118.213 395.383 118.459 395.502 118.717 395.597C118.974 395.687 119.211 395.761 119.427 395.818L120.609 396.136C120.912 396.216 121.249 396.326 121.62 396.466C121.995 396.606 122.353 396.797 122.694 397.04C123.039 397.278 123.323 397.585 123.546 397.96C123.77 398.335 123.881 398.795 123.881 399.341C123.881 399.97 123.717 400.538 123.387 401.045C123.061 401.553 122.584 401.956 121.955 402.256C121.33 402.555 120.571 402.705 119.677 402.705C118.844 402.705 118.122 402.57 117.512 402.301C116.906 402.032 116.429 401.657 116.08 401.176C115.736 400.695 115.54 400.136 115.495 399.5H116.95C116.987 399.939 117.135 400.303 117.393 400.591C117.654 400.875 117.984 401.087 118.381 401.227C118.783 401.364 119.215 401.432 119.677 401.432C120.215 401.432 120.698 401.345 121.126 401.17C121.554 400.992 121.893 400.746 122.143 400.432C122.393 400.114 122.518 399.742 122.518 399.318C122.518 398.932 122.41 398.617 122.194 398.375C121.978 398.133 121.694 397.936 121.342 397.784C120.989 397.633 120.609 397.5 120.2 397.386L118.768 396.977C117.859 396.716 117.139 396.343 116.609 395.858C116.078 395.373 115.813 394.739 115.813 393.955C115.813 393.303 115.989 392.735 116.342 392.25C116.698 391.761 117.175 391.383 117.773 391.114C118.376 390.841 119.048 390.705 119.79 390.705C120.54 390.705 121.207 390.839 121.79 391.108C122.374 391.373 122.836 391.737 123.177 392.199C123.522 392.661 123.703 393.186 123.722 393.773H122.359ZM126.198 402.5V390.864H133.221V392.114H127.607V396.045H132.857V397.295H127.607V401.25H133.312V402.5H126.198ZM143.692 402.659C143.026 402.659 142.425 402.527 141.891 402.261C141.357 401.996 140.929 401.633 140.607 401.17C140.285 400.708 140.109 400.182 140.079 399.591H141.442C141.496 400.117 141.734 400.553 142.158 400.898C142.586 401.239 143.098 401.409 143.692 401.409C144.17 401.409 144.594 401.297 144.965 401.074C145.34 400.85 145.634 400.544 145.846 400.153C146.062 399.759 146.17 399.314 146.17 398.818C146.17 398.311 146.058 397.858 145.835 397.46C145.615 397.059 145.312 396.742 144.925 396.511C144.539 396.28 144.098 396.163 143.602 396.159C143.246 396.155 142.88 396.21 142.505 396.324C142.13 396.434 141.821 396.576 141.579 396.75L140.261 396.591L140.965 390.864H147.011V392.114H142.147L141.738 395.545H141.806C142.045 395.356 142.344 395.199 142.704 395.074C143.064 394.949 143.439 394.886 143.829 394.886C144.541 394.886 145.175 395.057 145.732 395.398C146.293 395.735 146.732 396.197 147.05 396.784C147.372 397.371 147.533 398.042 147.533 398.795C147.533 399.538 147.367 400.201 147.033 400.784C146.704 401.364 146.249 401.822 145.67 402.159C145.09 402.492 144.431 402.659 143.692 402.659ZM153.586 402.659C152.73 402.659 152.001 402.426 151.398 401.96C150.796 401.491 150.336 400.811 150.018 399.92C149.7 399.027 149.54 397.947 149.54 396.682C149.54 395.424 149.7 394.35 150.018 393.46C150.34 392.566 150.802 391.884 151.404 391.415C152.01 390.941 152.737 390.705 153.586 390.705C154.434 390.705 155.16 390.941 155.762 391.415C156.368 391.884 156.83 392.566 157.148 393.46C157.47 394.35 157.631 395.424 157.631 396.682C157.631 397.947 157.472 399.027 157.154 399.92C156.836 400.811 156.376 401.491 155.773 401.96C155.171 402.426 154.442 402.659 153.586 402.659ZM153.586 401.409C154.434 401.409 155.094 401 155.563 400.182C156.033 399.364 156.268 398.197 156.268 396.682C156.268 395.674 156.16 394.816 155.944 394.108C155.732 393.4 155.425 392.86 155.023 392.489C154.626 392.117 154.147 391.932 153.586 391.932C152.745 391.932 152.088 392.347 151.614 393.176C151.141 394.002 150.904 395.17 150.904 396.682C150.904 397.689 151.01 398.545 151.222 399.25C151.434 399.955 151.739 400.491 152.137 400.858C152.539 401.225 153.022 401.409 153.586 401.409ZM163.586 402.659C162.73 402.659 162.001 402.426 161.398 401.96C160.796 401.491 160.336 400.811 160.018 399.92C159.7 399.027 159.54 397.947 159.54 396.682C159.54 395.424 159.7 394.35 160.018 393.46C160.34 392.566 160.802 391.884 161.404 391.415C162.01 390.941 162.737 390.705 163.586 390.705C164.434 390.705 165.16 390.941 165.762 391.415C166.368 391.884 166.83 392.566 167.148 393.46C167.47 394.35 167.631 395.424 167.631 396.682C167.631 397.947 167.472 399.027 167.154 399.92C166.836 400.811 166.376 401.491 165.773 401.96C165.171 402.426 164.442 402.659 163.586 402.659ZM163.586 401.409C164.434 401.409 165.094 401 165.563 400.182C166.033 399.364 166.268 398.197 166.268 396.682C166.268 395.674 166.16 394.816 165.944 394.108C165.732 393.4 165.425 392.86 165.023 392.489C164.626 392.117 164.147 391.932 163.586 391.932C162.745 391.932 162.088 392.347 161.614 393.176C161.141 394.002 160.904 395.17 160.904 396.682C160.904 397.689 161.01 398.545 161.222 399.25C161.434 399.955 161.739 400.491 162.137 400.858C162.539 401.225 163.022 401.409 163.586 401.409ZM173.859 392.114V390.864H182.586V392.114H178.927V402.5H177.518V392.114H173.859ZM184.761 402.5V390.864H188.692C189.602 390.864 190.348 391.019 190.931 391.33C191.514 391.636 191.946 392.059 192.227 392.597C192.507 393.134 192.647 393.746 192.647 394.432C192.647 395.117 192.507 395.725 192.227 396.256C191.946 396.786 191.516 397.203 190.937 397.506C190.357 397.805 189.617 397.955 188.715 397.955H185.533V396.682H188.67C189.291 396.682 189.791 396.591 190.17 396.409C190.552 396.227 190.829 395.97 190.999 395.636C191.174 395.299 191.261 394.898 191.261 394.432C191.261 393.966 191.174 393.559 190.999 393.21C190.825 392.862 190.547 392.593 190.164 392.403C189.781 392.21 189.276 392.114 188.647 392.114H186.17V402.5H184.761ZM190.238 397.273L193.102 402.5H191.465L188.647 397.273H190.238ZM196.404 390.864V402.5H194.995V390.864H196.404ZM201.911 396.682C201.911 398.114 201.724 399.432 201.349 400.636C200.978 401.837 200.445 402.943 199.752 403.955H198.57C198.843 403.58 199.097 403.117 199.332 402.568C199.57 402.023 199.779 401.424 199.957 400.773C200.135 400.117 200.273 399.441 200.371 398.744C200.474 398.044 200.525 397.356 200.525 396.682C200.525 395.78 200.438 394.866 200.263 393.938C200.089 393.009 199.854 392.148 199.559 391.352C199.263 390.557 198.934 389.909 198.57 389.409H199.752C200.445 390.42 200.978 391.528 201.349 392.733C201.724 393.934 201.911 395.25 201.911 396.682Z" fill="white" fill-opacity="0.94"/>
<path d="M98.571 133L97.7415 136.159H82.5028L83.321 133H98.571ZM90.6506 150.5L82.8778 141.25L82.8892 138.409H86.7301C87.5862 138.409 88.3021 138.25 88.8778 137.932C89.4536 137.614 89.8854 137.182 90.1733 136.636C90.4612 136.091 90.6089 135.47 90.6165 134.773C90.6089 133.727 90.3021 132.875 89.696 132.216C89.0975 131.549 88.1089 131.216 86.7301 131.216H82.5028L83.4347 127.227H86.7301C88.6619 127.227 90.2718 127.519 91.5597 128.102C92.8551 128.678 93.8248 129.5 94.4688 130.568C95.1203 131.636 95.4498 132.909 95.4574 134.386C95.4498 135.697 95.2301 136.841 94.7983 137.818C94.3741 138.795 93.7036 139.61 92.7869 140.261C91.8778 140.913 90.6922 141.398 89.2301 141.716L89.0483 141.784L96.0028 150.295V150.5H90.6506ZM98.5938 127.227L97.7415 130.432H85.196L86.0483 127.227H98.5938ZM111.73 127.227V150.5H106.81V131.898H106.673L101.344 135.239V130.875L107.105 127.227H111.73ZM118.886 150.795C118.136 150.795 117.492 150.53 116.955 150C116.424 149.462 116.159 148.818 116.159 148.068C116.159 147.326 116.424 146.689 116.955 146.159C117.492 145.629 118.136 145.364 118.886 145.364C119.614 145.364 120.25 145.629 120.795 146.159C121.341 146.689 121.614 147.326 121.614 148.068C121.614 148.568 121.485 149.027 121.227 149.443C120.977 149.852 120.648 150.182 120.239 150.432C119.83 150.674 119.379 150.795 118.886 150.795ZM133.395 150.818C131.698 150.818 130.187 150.527 128.861 149.943C127.543 149.352 126.501 148.542 125.736 147.511C124.978 146.473 124.588 145.277 124.565 143.92H129.52C129.55 144.489 129.736 144.989 130.077 145.42C130.425 145.845 130.887 146.174 131.463 146.409C132.039 146.644 132.687 146.761 133.406 146.761C134.156 146.761 134.819 146.629 135.395 146.364C135.971 146.098 136.421 145.731 136.747 145.261C137.073 144.792 137.236 144.25 137.236 143.636C137.236 143.015 137.062 142.466 136.713 141.989C136.372 141.504 135.88 141.125 135.236 140.852C134.599 140.58 133.842 140.443 132.963 140.443H130.793V136.83H132.963C133.705 136.83 134.361 136.701 134.929 136.443C135.505 136.186 135.952 135.83 136.27 135.375C136.588 134.913 136.747 134.375 136.747 133.761C136.747 133.178 136.607 132.667 136.327 132.227C136.054 131.78 135.668 131.432 135.168 131.182C134.675 130.932 134.099 130.807 133.44 130.807C132.774 130.807 132.164 130.928 131.611 131.17C131.058 131.405 130.615 131.742 130.281 132.182C129.948 132.621 129.77 133.136 129.747 133.727H125.031C125.054 132.386 125.437 131.205 126.179 130.182C126.921 129.159 127.921 128.36 129.179 127.784C130.444 127.201 131.872 126.909 133.463 126.909C135.069 126.909 136.474 127.201 137.679 127.784C138.884 128.367 139.819 129.155 140.486 130.148C141.16 131.133 141.493 132.239 141.486 133.466C141.493 134.769 141.088 135.856 140.27 136.727C139.459 137.598 138.402 138.152 137.099 138.386V138.568C138.812 138.788 140.115 139.383 141.009 140.352C141.91 141.314 142.357 142.519 142.349 143.966C142.357 145.292 141.974 146.47 141.202 147.5C140.437 148.53 139.38 149.341 138.031 149.932C136.683 150.523 135.137 150.818 133.395 150.818ZM154.489 150.818C152.792 150.818 151.28 150.527 149.955 149.943C148.636 149.352 147.595 148.542 146.83 147.511C146.072 146.473 145.682 145.277 145.659 143.92H150.614C150.644 144.489 150.83 144.989 151.17 145.42C151.519 145.845 151.981 146.174 152.557 146.409C153.133 146.644 153.78 146.761 154.5 146.761C155.25 146.761 155.913 146.629 156.489 146.364C157.064 146.098 157.515 145.731 157.841 145.261C158.167 144.792 158.33 144.25 158.33 143.636C158.33 143.015 158.155 142.466 157.807 141.989C157.466 141.504 156.973 141.125 156.33 140.852C155.693 140.58 154.936 140.443 154.057 140.443H151.886V136.83H154.057C154.799 136.83 155.455 136.701 156.023 136.443C156.598 136.186 157.045 135.83 157.364 135.375C157.682 134.913 157.841 134.375 157.841 133.761C157.841 133.178 157.701 132.667 157.42 132.227C157.148 131.78 156.761 131.432 156.261 131.182C155.769 130.932 155.193 130.807 154.534 130.807C153.867 130.807 153.258 130.928 152.705 131.17C152.152 131.405 151.708 131.742 151.375 132.182C151.042 132.621 150.864 133.136 150.841 133.727H146.125C146.148 132.386 146.53 131.205 147.273 130.182C148.015 129.159 149.015 128.36 150.273 127.784C151.538 127.201 152.966 126.909 154.557 126.909C156.163 126.909 157.568 127.201 158.773 127.784C159.977 128.367 160.913 129.155 161.58 130.148C162.254 131.133 162.587 132.239 162.58 133.466C162.587 134.769 162.182 135.856 161.364 136.727C160.553 137.598 159.496 138.152 158.193 138.386V138.568C159.905 138.788 161.208 139.383 162.102 140.352C163.004 141.314 163.451 142.519 163.443 143.966C163.451 145.292 163.068 146.47 162.295 147.5C161.53 148.53 160.473 149.341 159.125 149.932C157.777 150.523 156.231 150.818 154.489 150.818ZM195.057 135.375H190.08C189.989 134.731 189.803 134.159 189.523 133.659C189.242 133.152 188.883 132.72 188.443 132.364C188.004 132.008 187.496 131.735 186.92 131.545C186.352 131.356 185.735 131.261 185.068 131.261C183.864 131.261 182.814 131.561 181.92 132.159C181.027 132.75 180.333 133.614 179.841 134.75C179.348 135.879 179.102 137.25 179.102 138.864C179.102 140.523 179.348 141.917 179.841 143.045C180.341 144.174 181.038 145.027 181.932 145.602C182.826 146.178 183.86 146.466 185.034 146.466C185.693 146.466 186.303 146.379 186.864 146.205C187.432 146.03 187.936 145.777 188.375 145.443C188.814 145.102 189.178 144.689 189.466 144.205C189.761 143.72 189.966 143.167 190.08 142.545L195.057 142.568C194.928 143.636 194.606 144.667 194.091 145.659C193.583 146.644 192.898 147.527 192.034 148.307C191.178 149.08 190.155 149.693 188.966 150.148C187.784 150.595 186.447 150.818 184.955 150.818C182.879 150.818 181.023 150.348 179.386 149.409C177.758 148.47 176.47 147.11 175.523 145.33C174.583 143.549 174.114 141.394 174.114 138.864C174.114 136.326 174.591 134.167 175.545 132.386C176.5 130.606 177.795 129.25 179.432 128.318C181.068 127.379 182.909 126.909 184.955 126.909C186.303 126.909 187.553 127.098 188.705 127.477C189.864 127.856 190.89 128.409 191.784 129.136C192.678 129.856 193.405 130.739 193.966 131.784C194.534 132.83 194.898 134.027 195.057 135.375ZM198.494 150.5V133.045H203.188V136.091H203.369C203.688 135.008 204.222 134.189 204.972 133.636C205.722 133.076 206.585 132.795 207.562 132.795C207.805 132.795 208.066 132.811 208.347 132.841C208.627 132.871 208.873 132.913 209.085 132.966V137.261C208.858 137.193 208.544 137.133 208.142 137.08C207.741 137.027 207.373 137 207.04 137C206.328 137 205.691 137.155 205.131 137.466C204.578 137.769 204.138 138.193 203.812 138.739C203.494 139.284 203.335 139.913 203.335 140.625V150.5H198.494Z" fill="white" fill-opacity="0.5"/>
<path d="M306.227 33L305.398 36.1591H290.159L290.977 33H306.227ZM298.307 50.5L290.534 41.25L290.545 38.4091H294.386C295.242 38.4091 295.958 38.25 296.534 37.9318C297.11 37.6136 297.542 37.1818 297.83 36.6364C298.117 36.0909 298.265 35.4697 298.273 34.7727C298.265 33.7273 297.958 32.875 297.352 32.2159C296.754 31.5492 295.765 31.2159 294.386 31.2159H290.159L291.091 27.2273H294.386C296.318 27.2273 297.928 27.5189 299.216 28.1023C300.511 28.678 301.481 29.5 302.125 30.5682C302.777 31.6364 303.106 32.9091 303.114 34.3864C303.106 35.697 302.886 36.8409 302.455 37.8182C302.03 38.7955 301.36 39.6098 300.443 40.2614C299.534 40.9129 298.348 41.3977 296.886 41.7159L296.705 41.7841L303.659 50.2955V50.5H298.307ZM306.25 27.2273L305.398 30.4318H292.852L293.705 27.2273H306.25ZM319.386 27.2273V50.5H314.466V31.8977H314.33L309 35.2386V30.875L314.761 27.2273H319.386ZM326.543 50.7955C325.793 50.7955 325.149 50.5303 324.611 50C324.08 49.4621 323.815 48.8182 323.815 48.0682C323.815 47.3258 324.08 46.6894 324.611 46.1591C325.149 45.6288 325.793 45.3636 326.543 45.3636C327.27 45.3636 327.906 45.6288 328.452 46.1591C328.997 46.6894 329.27 47.3258 329.27 48.0682C329.27 48.5682 329.141 49.0265 328.884 49.4432C328.634 49.8523 328.304 50.1818 327.895 50.4318C327.486 50.6742 327.035 50.7955 326.543 50.7955ZM332.847 46.4091V42.5341L342.562 27.2273H345.903V32.5909H343.926L337.801 42.2841V42.4659H351.608V46.4091H332.847ZM344.017 50.5V45.2273L344.108 43.5114V27.2273H348.722V50.5H344.017ZM355.807 50.5L365.455 31.4091V31.25H354.216V27.2273H370.545V31.3068L360.886 50.5H355.807ZM401.994 35.375H397.017C396.926 34.7311 396.741 34.1591 396.46 33.6591C396.18 33.1515 395.82 32.7197 395.381 32.3636C394.941 32.0076 394.434 31.7348 393.858 31.5455C393.29 31.3561 392.672 31.2614 392.006 31.2614C390.801 31.2614 389.752 31.5606 388.858 32.1591C387.964 32.75 387.271 33.6136 386.778 34.75C386.286 35.8788 386.04 37.25 386.04 38.8636C386.04 40.5227 386.286 41.9167 386.778 43.0455C387.278 44.1742 387.975 45.0265 388.869 45.6023C389.763 46.178 390.797 46.4659 391.972 46.4659C392.631 46.4659 393.241 46.3788 393.801 46.2045C394.369 46.0303 394.873 45.7765 395.312 45.4432C395.752 45.1023 396.116 44.6894 396.403 44.2045C396.699 43.7197 396.903 43.1667 397.017 42.5455L401.994 42.5682C401.866 43.6364 401.544 44.6667 401.028 45.6591C400.521 46.6439 399.835 47.5265 398.972 48.3068C398.116 49.0795 397.093 49.6932 395.903 50.1477C394.722 50.5947 393.384 50.8182 391.892 50.8182C389.816 50.8182 387.96 50.3485 386.324 49.4091C384.695 48.4697 383.407 47.1098 382.46 45.3295C381.521 43.5492 381.051 41.3939 381.051 38.8636C381.051 36.3258 381.528 34.1667 382.483 32.3864C383.438 30.6061 384.733 29.25 386.369 28.3182C388.006 27.3788 389.847 26.9091 391.892 26.9091C393.241 26.9091 394.491 27.0985 395.642 27.4773C396.801 27.8561 397.828 28.4091 398.722 29.1364C399.616 29.8561 400.343 30.7386 400.903 31.7841C401.472 32.8295 401.835 34.0265 401.994 35.375ZM405.432 50.5V33.0455H410.125V36.0909H410.307C410.625 35.0076 411.159 34.1894 411.909 33.6364C412.659 33.0758 413.523 32.7955 414.5 32.7955C414.742 32.7955 415.004 32.8106 415.284 32.8409C415.564 32.8712 415.811 32.9129 416.023 32.9659V37.2614C415.795 37.1932 415.481 37.1326 415.08 37.0795C414.678 37.0265 414.311 37 413.977 37C413.265 37 412.629 37.1553 412.068 37.4659C411.515 37.7689 411.076 38.1932 410.75 38.7386C410.432 39.2841 410.273 39.9129 410.273 40.625V50.5H405.432Z" fill="white" fill-opacity="0.94"/>
<path d="M71 172.229C71 168.106 74.3426 164.764 78.4658 164.764H213.534C217.657 164.764 221 168.106 221 172.229V344.5H71V172.229Z" fill="#757575"/>
<path d="M280 71.9658C280 67.8426 283.343 64.5 287.466 64.5H422.534C426.657 64.5 430 67.8426 430 71.9658V344.5H280V71.9658Z" fill="#70894E"/>
<path d="M312.269 378.377H308.144V366.741H312.303C313.474 366.741 314.481 366.974 315.326 367.44C316.171 367.902 316.82 368.567 317.275 369.434C317.733 370.302 317.962 371.34 317.962 372.548C317.962 373.76 317.733 374.802 317.275 375.673C316.82 376.544 316.167 377.213 315.315 377.679C314.466 378.144 313.451 378.377 312.269 378.377ZM310.604 376.269H312.167C312.894 376.269 313.506 376.141 314.002 375.883C314.502 375.622 314.877 375.218 315.127 374.673C315.381 374.124 315.508 373.415 315.508 372.548C315.508 371.688 315.381 370.985 315.127 370.44C314.877 369.894 314.504 369.493 314.008 369.235C313.512 368.978 312.9 368.849 312.173 368.849H310.604V376.269ZM323.717 378.548C322.819 378.548 322.046 378.366 321.398 378.002C320.754 377.635 320.258 377.116 319.91 376.446C319.561 375.771 319.387 374.974 319.387 374.054C319.387 373.156 319.561 372.368 319.91 371.69C320.258 371.012 320.749 370.484 321.381 370.105C322.018 369.726 322.764 369.537 323.62 369.537C324.196 369.537 324.732 369.629 325.228 369.815C325.728 369.997 326.164 370.271 326.535 370.639C326.91 371.006 327.201 371.468 327.41 372.025C327.618 372.578 327.722 373.226 327.722 373.968V374.633H320.353V373.133H325.444C325.444 372.785 325.368 372.476 325.217 372.207C325.065 371.938 324.855 371.728 324.586 371.576C324.321 371.421 324.012 371.343 323.66 371.343C323.292 371.343 322.967 371.429 322.683 371.599C322.402 371.766 322.183 371.991 322.023 372.275C321.864 372.555 321.783 372.868 321.779 373.213V374.639C321.779 375.071 321.859 375.444 322.018 375.758C322.181 376.073 322.41 376.315 322.705 376.485C323.001 376.656 323.351 376.741 323.756 376.741C324.025 376.741 324.272 376.703 324.495 376.627C324.719 376.552 324.91 376.438 325.069 376.287C325.228 376.135 325.349 375.949 325.433 375.73L327.671 375.877C327.558 376.415 327.325 376.885 326.972 377.287C326.624 377.684 326.173 377.995 325.62 378.218C325.071 378.438 324.436 378.548 323.717 378.548ZM329.256 378.377V376.934L333.529 371.644V371.582H329.404V369.65H336.444V371.224L332.433 376.383V376.446H336.592V378.377H329.256ZM342.17 378.548C341.272 378.548 340.499 378.366 339.852 378.002C339.208 377.635 338.711 377.116 338.363 376.446C338.014 375.771 337.84 374.974 337.84 374.054C337.84 373.156 338.014 372.368 338.363 371.69C338.711 371.012 339.202 370.484 339.835 370.105C340.471 369.726 341.217 369.537 342.073 369.537C342.649 369.537 343.185 369.629 343.681 369.815C344.181 369.997 344.617 370.271 344.988 370.639C345.363 371.006 345.655 371.468 345.863 372.025C346.071 372.578 346.175 373.226 346.175 373.968V374.633H338.806V373.133H343.897C343.897 372.785 343.821 372.476 343.67 372.207C343.518 371.938 343.308 371.728 343.039 371.576C342.774 371.421 342.465 371.343 342.113 371.343C341.746 371.343 341.42 371.429 341.136 371.599C340.855 371.766 340.636 371.991 340.477 372.275C340.317 372.555 340.236 372.868 340.232 373.213V374.639C340.232 375.071 340.312 375.444 340.471 375.758C340.634 376.073 340.863 376.315 341.158 376.485C341.454 376.656 341.804 376.741 342.21 376.741C342.478 376.741 342.725 376.703 342.948 376.627C343.172 376.552 343.363 376.438 343.522 376.287C343.681 376.135 343.802 375.949 343.886 375.73L346.124 375.877C346.011 376.415 345.778 376.885 345.425 377.287C345.077 377.684 344.626 377.995 344.073 378.218C343.524 378.438 342.889 378.548 342.17 378.548ZM347.755 378.377V369.65H350.102V371.173H350.192C350.352 370.631 350.619 370.222 350.994 369.946C351.369 369.665 351.8 369.525 352.289 369.525C352.41 369.525 352.541 369.533 352.681 369.548C352.821 369.563 352.944 369.584 353.05 369.61V371.758C352.937 371.724 352.78 371.694 352.579 371.667C352.378 371.641 352.194 371.627 352.028 371.627C351.672 371.627 351.353 371.705 351.073 371.86C350.797 372.012 350.577 372.224 350.414 372.497C350.255 372.769 350.175 373.084 350.175 373.44V378.377H347.755ZM362.704 369.65L359.653 378.377H356.925L353.874 369.65H356.431L358.244 375.894H358.335L360.141 369.65H362.704ZM371.394 378.377V366.741H375.985C376.868 366.741 377.62 366.91 378.241 367.247C378.862 367.58 379.335 368.044 379.661 368.639C379.991 369.23 380.156 369.912 380.156 370.684C380.156 371.457 379.989 372.139 379.656 372.73C379.322 373.321 378.839 373.781 378.207 374.11C377.578 374.44 376.817 374.605 375.923 374.605H372.996V372.633H375.525C375.998 372.633 376.388 372.552 376.695 372.389C377.006 372.222 377.237 371.993 377.388 371.701C377.544 371.406 377.621 371.067 377.621 370.684C377.621 370.298 377.544 369.961 377.388 369.673C377.237 369.381 377.006 369.156 376.695 368.997C376.385 368.834 375.991 368.752 375.513 368.752H373.854V378.377H371.394ZM381.754 366.741H384.788L387.992 374.559H388.129L391.333 366.741H394.367V378.377H391.981V370.804H391.884L388.873 378.321H387.248L384.237 370.775H384.14V378.377H381.754V366.741ZM402.707 370.088C402.661 369.629 402.466 369.273 402.121 369.019C401.777 368.766 401.309 368.639 400.718 368.639C400.317 368.639 399.978 368.696 399.701 368.809C399.424 368.919 399.212 369.073 399.065 369.269C398.921 369.466 398.849 369.69 398.849 369.94C398.841 370.148 398.885 370.33 398.979 370.485C399.078 370.641 399.212 370.775 399.383 370.889C399.553 370.999 399.75 371.095 399.974 371.179C400.197 371.258 400.436 371.326 400.69 371.383L401.735 371.633C402.243 371.747 402.709 371.898 403.133 372.088C403.557 372.277 403.924 372.51 404.235 372.787C404.546 373.063 404.786 373.389 404.957 373.764C405.131 374.139 405.22 374.569 405.224 375.054C405.22 375.766 405.038 376.383 404.678 376.906C404.322 377.425 403.807 377.828 403.133 378.116C402.462 378.4 401.654 378.542 400.707 378.542C399.767 378.542 398.949 378.398 398.252 378.11C397.559 377.823 397.017 377.396 396.627 376.832C396.241 376.264 396.038 375.561 396.019 374.724H398.4C398.426 375.114 398.538 375.44 398.735 375.701C398.936 375.959 399.203 376.154 399.536 376.287C399.873 376.415 400.254 376.48 400.678 376.48C401.095 376.48 401.457 376.419 401.763 376.298C402.074 376.177 402.315 376.008 402.485 375.792C402.656 375.576 402.741 375.328 402.741 375.048C402.741 374.787 402.663 374.567 402.508 374.389C402.356 374.211 402.133 374.059 401.837 373.934C401.546 373.809 401.188 373.696 400.763 373.593L399.496 373.275C398.515 373.037 397.741 372.663 397.173 372.156C396.604 371.648 396.322 370.965 396.326 370.105C396.322 369.4 396.51 368.785 396.888 368.258C397.271 367.732 397.796 367.321 398.462 367.025C399.129 366.73 399.887 366.582 400.735 366.582C401.599 366.582 402.353 366.73 402.996 367.025C403.644 367.321 404.148 367.732 404.508 368.258C404.868 368.785 405.053 369.394 405.065 370.088H402.707ZM270.839 402.377V390.741H277.862V391.991H272.248V395.923H277.498V397.173H272.248V401.127H277.952V402.377H270.839ZM286.174 405.65V401.037H286.06C285.962 401.196 285.822 401.396 285.64 401.639C285.458 401.877 285.199 402.091 284.862 402.281C284.524 402.466 284.076 402.559 283.515 402.559C282.788 402.559 282.146 402.376 281.589 402.008C281.032 401.637 280.596 401.114 280.282 400.44C279.968 399.762 279.81 398.961 279.81 398.037C279.81 397.12 279.968 396.324 280.282 395.65C280.596 394.976 281.034 394.455 281.594 394.088C282.155 393.72 282.803 393.537 283.538 393.537C284.106 393.537 284.555 393.631 284.884 393.821C285.218 394.006 285.471 394.218 285.646 394.457C285.824 394.692 285.962 394.885 286.06 395.037H286.219V393.65H287.515V405.65H286.174ZM283.697 401.355C284.235 401.355 284.689 401.215 285.06 400.934C285.432 400.65 285.714 400.258 285.907 399.758C286.1 399.254 286.197 398.673 286.197 398.014C286.197 397.362 286.102 396.792 285.913 396.304C285.723 395.811 285.443 395.429 285.072 395.156C284.701 394.879 284.242 394.741 283.697 394.741C283.129 394.741 282.655 394.887 282.276 395.179C281.901 395.466 281.619 395.859 281.43 396.355C281.244 396.847 281.151 397.4 281.151 398.014C281.151 398.635 281.246 399.199 281.435 399.707C281.629 400.211 281.913 400.612 282.288 400.912C282.666 401.207 283.136 401.355 283.697 401.355ZM295.469 398.809V393.65H296.81V402.377H295.469V400.9H295.379C295.174 401.343 294.856 401.72 294.424 402.031C293.992 402.338 293.447 402.491 292.788 402.491C292.242 402.491 291.757 402.372 291.333 402.133C290.909 401.891 290.576 401.527 290.333 401.042C290.091 400.554 289.969 399.938 289.969 399.196V393.65H291.31V399.105C291.31 399.741 291.488 400.249 291.844 400.627C292.204 401.006 292.663 401.196 293.219 401.196C293.553 401.196 293.892 401.11 294.237 400.94C294.585 400.769 294.877 400.508 295.112 400.156C295.35 399.804 295.469 399.355 295.469 398.809ZM299.266 402.377V393.65H300.607V402.377H299.266ZM299.948 392.196C299.687 392.196 299.461 392.107 299.272 391.929C299.086 391.751 298.994 391.537 298.994 391.287C298.994 391.037 299.086 390.823 299.272 390.644C299.461 390.466 299.687 390.377 299.948 390.377C300.21 390.377 300.433 390.466 300.619 390.644C300.808 390.823 300.903 391.037 300.903 391.287C300.903 391.537 300.808 391.751 300.619 391.929C300.433 392.107 300.21 392.196 299.948 392.196ZM306.859 393.65V394.787H302.336V393.65H306.859ZM303.654 391.559H304.995V399.877C304.995 400.256 305.05 400.54 305.16 400.73C305.273 400.915 305.417 401.04 305.592 401.105C305.77 401.165 305.957 401.196 306.154 401.196C306.302 401.196 306.423 401.188 306.518 401.173C306.612 401.154 306.688 401.139 306.745 401.127L307.018 402.332C306.927 402.366 306.8 402.4 306.637 402.434C306.474 402.472 306.268 402.491 306.018 402.491C305.639 402.491 305.268 402.41 304.904 402.247C304.544 402.084 304.245 401.836 304.006 401.502C303.772 401.169 303.654 400.749 303.654 400.241V391.559ZM309.739 405.65C309.512 405.65 309.309 405.631 309.131 405.593C308.953 405.559 308.83 405.525 308.762 405.491L309.103 404.309C309.429 404.393 309.717 404.423 309.967 404.4C310.217 404.377 310.438 404.266 310.631 404.065C310.828 403.868 311.008 403.548 311.171 403.105L311.421 402.423L308.194 393.65H309.648L312.058 400.605H312.148L314.558 393.65H316.012L312.308 403.65C312.141 404.101 311.934 404.474 311.688 404.769C311.442 405.069 311.156 405.29 310.83 405.434C310.508 405.578 310.145 405.65 309.739 405.65ZM322.464 402.377V390.741H326.396C327.305 390.741 328.051 390.896 328.634 391.207C329.218 391.514 329.649 391.936 329.93 392.474C330.21 393.012 330.35 393.624 330.35 394.309C330.35 394.995 330.21 395.603 329.93 396.133C329.649 396.663 329.219 397.08 328.64 397.383C328.06 397.682 327.32 397.832 326.418 397.832H323.237V396.559H326.373C326.994 396.559 327.494 396.468 327.873 396.287C328.255 396.105 328.532 395.847 328.702 395.514C328.877 395.177 328.964 394.775 328.964 394.309C328.964 393.843 328.877 393.436 328.702 393.088C328.528 392.739 328.25 392.47 327.867 392.281C327.485 392.088 326.979 391.991 326.35 391.991H323.873V402.377H322.464ZM327.941 397.15L330.805 402.377H329.168L326.35 397.15H327.941ZM336.082 402.559C335.241 402.559 334.515 402.374 333.906 402.002C333.299 401.627 332.832 401.105 332.502 400.434C332.176 399.76 332.013 398.976 332.013 398.082C332.013 397.188 332.176 396.4 332.502 395.718C332.832 395.033 333.29 394.499 333.877 394.116C334.468 393.73 335.157 393.537 335.945 393.537C336.4 393.537 336.849 393.612 337.292 393.764C337.735 393.915 338.138 394.162 338.502 394.502C338.866 394.84 339.156 395.287 339.371 395.843C339.587 396.4 339.695 397.086 339.695 397.9V398.468H332.968V397.309H338.332C338.332 396.817 338.233 396.377 338.036 395.991C337.843 395.605 337.567 395.3 337.207 395.076C336.851 394.853 336.43 394.741 335.945 394.741C335.411 394.741 334.949 394.874 334.559 395.139C334.173 395.4 333.875 395.741 333.667 396.162C333.459 396.582 333.354 397.033 333.354 397.514V398.287C333.354 398.946 333.468 399.504 333.695 399.963C333.926 400.417 334.246 400.764 334.656 401.002C335.065 401.237 335.54 401.355 336.082 401.355C336.434 401.355 336.752 401.305 337.036 401.207C337.324 401.105 337.572 400.953 337.781 400.752C337.989 400.548 338.15 400.294 338.263 399.991L339.559 400.355C339.423 400.794 339.193 401.18 338.871 401.514C338.549 401.843 338.152 402.101 337.678 402.287C337.205 402.468 336.673 402.559 336.082 402.559ZM348.606 393.65L345.379 402.377H344.015L340.788 393.65H342.242L344.651 400.605H344.742L347.151 393.65H348.606ZM350.376 402.377V393.65H351.717V402.377H350.376ZM351.058 392.196C350.796 392.196 350.571 392.107 350.381 391.929C350.196 391.751 350.103 391.537 350.103 391.287C350.103 391.037 350.196 390.823 350.381 390.644C350.571 390.466 350.796 390.377 351.058 390.377C351.319 390.377 351.542 390.466 351.728 390.644C351.917 390.823 352.012 391.037 352.012 391.287C352.012 391.537 351.917 391.751 351.728 391.929C351.542 392.107 351.319 392.196 351.058 392.196ZM361.309 393.65L358.082 402.377H356.718L353.491 393.65H354.945L357.354 400.605H357.445L359.854 393.65H361.309ZM365.381 402.582C364.828 402.582 364.326 402.478 363.876 402.269C363.425 402.057 363.067 401.752 362.802 401.355C362.537 400.953 362.404 400.468 362.404 399.9C362.404 399.4 362.503 398.995 362.7 398.684C362.897 398.37 363.16 398.124 363.489 397.946C363.819 397.768 364.183 397.635 364.58 397.548C364.982 397.457 365.385 397.385 365.79 397.332C366.321 397.264 366.751 397.213 367.08 397.179C367.414 397.141 367.656 397.078 367.808 396.991C367.963 396.904 368.04 396.752 368.04 396.537V396.491C368.04 395.93 367.887 395.495 367.58 395.184C367.277 394.874 366.817 394.718 366.2 394.718C365.559 394.718 365.058 394.859 364.694 395.139C364.33 395.419 364.075 395.718 363.927 396.037L362.654 395.582C362.881 395.052 363.184 394.639 363.563 394.343C363.946 394.044 364.362 393.836 364.813 393.718C365.268 393.597 365.715 393.537 366.154 393.537C366.434 393.537 366.756 393.571 367.12 393.639C367.487 393.703 367.842 393.838 368.183 394.042C368.527 394.247 368.813 394.555 369.04 394.968C369.268 395.381 369.381 395.934 369.381 396.627V402.377H368.04V401.196H367.972C367.881 401.385 367.73 401.588 367.518 401.804C367.306 402.019 367.023 402.203 366.671 402.355C366.319 402.506 365.889 402.582 365.381 402.582ZM365.586 401.377C366.116 401.377 366.563 401.273 366.927 401.065C367.294 400.857 367.571 400.588 367.756 400.258C367.946 399.929 368.04 399.582 368.04 399.218V397.991C367.984 398.059 367.859 398.122 367.665 398.179C367.476 398.232 367.256 398.279 367.006 398.321C366.76 398.359 366.52 398.393 366.285 398.423C366.054 398.449 365.866 398.472 365.722 398.491C365.374 398.537 365.048 398.61 364.745 398.713C364.446 398.811 364.203 398.961 364.018 399.162C363.836 399.359 363.745 399.627 363.745 399.968C363.745 400.434 363.917 400.787 364.262 401.025C364.611 401.26 365.052 401.377 365.586 401.377ZM373.17 390.741V402.377H371.829V390.741H373.17ZM386.671 393.65C386.603 393.074 386.326 392.627 385.842 392.309C385.357 391.991 384.762 391.832 384.058 391.832C383.542 391.832 383.092 391.915 382.705 392.082C382.323 392.249 382.023 392.478 381.808 392.769C381.595 393.061 381.489 393.393 381.489 393.764C381.489 394.074 381.563 394.341 381.711 394.565C381.862 394.785 382.056 394.968 382.29 395.116C382.525 395.26 382.772 395.379 383.029 395.474C383.287 395.565 383.523 395.639 383.739 395.696L384.921 396.014C385.224 396.093 385.561 396.203 385.933 396.343C386.308 396.484 386.665 396.675 387.006 396.917C387.351 397.156 387.635 397.463 387.859 397.838C388.082 398.213 388.194 398.673 388.194 399.218C388.194 399.847 388.029 400.415 387.7 400.923C387.374 401.43 386.897 401.834 386.268 402.133C385.643 402.432 384.883 402.582 383.989 402.582C383.156 402.582 382.434 402.448 381.825 402.179C381.219 401.91 380.741 401.535 380.393 401.054C380.048 400.573 379.853 400.014 379.808 399.377H381.262C381.3 399.817 381.448 400.18 381.705 400.468C381.967 400.752 382.296 400.965 382.694 401.105C383.095 401.241 383.527 401.309 383.989 401.309C384.527 401.309 385.01 401.222 385.438 401.048C385.866 400.87 386.205 400.624 386.455 400.309C386.705 399.991 386.83 399.62 386.83 399.196C386.83 398.809 386.722 398.495 386.506 398.252C386.29 398.01 386.006 397.813 385.654 397.662C385.302 397.51 384.921 397.377 384.512 397.264L383.08 396.855C382.171 396.593 381.451 396.22 380.921 395.735C380.391 395.251 380.126 394.616 380.126 393.832C380.126 393.18 380.302 392.612 380.654 392.127C381.01 391.639 381.487 391.26 382.086 390.991C382.688 390.718 383.361 390.582 384.103 390.582C384.853 390.582 385.52 390.716 386.103 390.985C386.686 391.251 387.148 391.614 387.489 392.076C387.834 392.538 388.016 393.063 388.035 393.65H386.671ZM394.124 393.65V394.787H389.602V393.65H394.124ZM390.92 391.559H392.261V399.877C392.261 400.256 392.316 400.54 392.425 400.73C392.539 400.915 392.683 401.04 392.857 401.105C393.035 401.165 393.223 401.196 393.42 401.196C393.567 401.196 393.689 401.188 393.783 401.173C393.878 401.154 393.954 401.139 394.011 401.127L394.283 402.332C394.192 402.366 394.066 402.4 393.903 402.434C393.74 402.472 393.533 402.491 393.283 402.491C392.905 402.491 392.533 402.41 392.17 402.247C391.81 402.084 391.511 401.836 391.272 401.502C391.037 401.169 390.92 400.749 390.92 400.241V391.559ZM396.141 402.377V393.65H397.437V394.968H397.528C397.687 394.537 397.975 394.186 398.391 393.917C398.808 393.648 399.278 393.514 399.8 393.514C399.899 393.514 400.022 393.516 400.17 393.519C400.317 393.523 400.429 393.529 400.505 393.537V394.9C400.46 394.889 400.355 394.872 400.192 394.849C400.033 394.823 399.865 394.809 399.687 394.809C399.263 394.809 398.884 394.898 398.55 395.076C398.221 395.251 397.96 395.493 397.766 395.804C397.577 396.11 397.482 396.461 397.482 396.855V402.377H396.141ZM404.663 402.582C404.11 402.582 403.608 402.478 403.157 402.269C402.706 402.057 402.348 401.752 402.083 401.355C401.818 400.953 401.685 400.468 401.685 399.9C401.685 399.4 401.784 398.995 401.981 398.684C402.178 398.37 402.441 398.124 402.771 397.946C403.1 397.768 403.464 397.635 403.862 397.548C404.263 397.457 404.666 397.385 405.072 397.332C405.602 397.264 406.032 397.213 406.362 397.179C406.695 397.141 406.937 397.078 407.089 396.991C407.244 396.904 407.322 396.752 407.322 396.537V396.491C407.322 395.93 407.168 395.495 406.862 395.184C406.558 394.874 406.098 394.718 405.481 394.718C404.841 394.718 404.339 394.859 403.975 395.139C403.612 395.419 403.356 395.718 403.208 396.037L401.935 395.582C402.163 395.052 402.466 394.639 402.844 394.343C403.227 394.044 403.644 393.836 404.094 393.718C404.549 393.597 404.996 393.537 405.435 393.537C405.716 393.537 406.038 393.571 406.401 393.639C406.769 393.703 407.123 393.838 407.464 394.042C407.808 394.247 408.094 394.555 408.322 394.968C408.549 395.381 408.663 395.934 408.663 396.627V402.377H407.322V401.196H407.254C407.163 401.385 407.011 401.588 406.799 401.804C406.587 402.019 406.305 402.203 405.952 402.355C405.6 402.506 405.17 402.582 404.663 402.582ZM404.867 401.377C405.397 401.377 405.844 401.273 406.208 401.065C406.576 400.857 406.852 400.588 407.038 400.258C407.227 399.929 407.322 399.582 407.322 399.218V397.991C407.265 398.059 407.14 398.122 406.947 398.179C406.757 398.232 406.538 398.279 406.288 398.321C406.041 398.359 405.801 398.393 405.566 398.423C405.335 398.449 405.147 398.472 405.004 398.491C404.655 398.537 404.329 398.61 404.026 398.713C403.727 398.811 403.485 398.961 403.299 399.162C403.117 399.359 403.026 399.627 403.026 399.968C403.026 400.434 403.199 400.787 403.543 401.025C403.892 401.26 404.333 401.377 404.867 401.377ZM414.906 393.65V394.787H410.383V393.65H414.906ZM411.701 391.559H413.042V399.877C413.042 400.256 413.097 400.54 413.207 400.73C413.32 400.915 413.464 401.04 413.638 401.105C413.817 401.165 414.004 401.196 414.201 401.196C414.349 401.196 414.47 401.188 414.565 401.173C414.659 401.154 414.735 401.139 414.792 401.127L415.065 402.332C414.974 402.366 414.847 402.4 414.684 402.434C414.521 402.472 414.315 402.491 414.065 402.491C413.686 402.491 413.315 402.41 412.951 402.247C412.591 402.084 412.292 401.836 412.053 401.502C411.818 401.169 411.701 400.749 411.701 400.241V391.559ZM420.488 402.559C419.647 402.559 418.922 402.374 418.312 402.002C417.706 401.627 417.238 401.105 416.908 400.434C416.583 399.76 416.42 398.976 416.42 398.082C416.42 397.188 416.583 396.4 416.908 395.718C417.238 395.033 417.696 394.499 418.283 394.116C418.874 393.73 419.564 393.537 420.352 393.537C420.806 393.537 421.255 393.612 421.698 393.764C422.141 393.915 422.545 394.162 422.908 394.502C423.272 394.84 423.562 395.287 423.778 395.843C423.994 396.4 424.102 397.086 424.102 397.9V398.468H417.374V397.309H422.738C422.738 396.817 422.639 396.377 422.442 395.991C422.249 395.605 421.973 395.3 421.613 395.076C421.257 394.853 420.836 394.741 420.352 394.741C419.817 394.741 419.355 394.874 418.965 395.139C418.579 395.4 418.281 395.741 418.073 396.162C417.865 396.582 417.761 397.033 417.761 397.514V398.287C417.761 398.946 417.874 399.504 418.102 399.963C418.333 400.417 418.653 400.764 419.062 401.002C419.471 401.237 419.946 401.355 420.488 401.355C420.84 401.355 421.158 401.305 421.442 401.207C421.73 401.105 421.978 400.953 422.187 400.752C422.395 400.548 422.556 400.294 422.67 399.991L423.965 400.355C423.829 400.794 423.6 401.18 423.278 401.514C422.956 401.843 422.558 402.101 422.085 402.287C421.611 402.468 421.079 402.559 420.488 402.559ZM429.664 405.832C429.016 405.832 428.46 405.749 427.994 405.582C427.528 405.419 427.139 405.203 426.829 404.934C426.522 404.669 426.278 404.385 426.096 404.082L427.164 403.332C427.285 403.491 427.439 403.673 427.624 403.877C427.81 404.086 428.064 404.266 428.386 404.417C428.711 404.573 429.138 404.65 429.664 404.65C430.369 404.65 430.95 404.48 431.408 404.139C431.867 403.798 432.096 403.264 432.096 402.537V400.764H431.982C431.884 400.923 431.744 401.12 431.562 401.355C431.384 401.586 431.126 401.792 430.789 401.974C430.456 402.152 430.005 402.241 429.437 402.241C428.732 402.241 428.1 402.074 427.539 401.741C426.982 401.408 426.541 400.923 426.215 400.287C425.893 399.65 425.732 398.877 425.732 397.968C425.732 397.074 425.889 396.296 426.204 395.633C426.518 394.966 426.956 394.451 427.516 394.088C428.077 393.72 428.725 393.537 429.46 393.537C430.028 393.537 430.478 393.631 430.812 393.821C431.149 394.006 431.406 394.218 431.585 394.457C431.766 394.692 431.906 394.885 432.005 395.037H432.141V393.65H433.437V402.627C433.437 403.377 433.266 403.987 432.925 404.457C432.588 404.93 432.134 405.277 431.562 405.497C430.994 405.72 430.361 405.832 429.664 405.832ZM429.619 401.037C430.156 401.037 430.611 400.913 430.982 400.667C431.353 400.421 431.636 400.067 431.829 399.605C432.022 399.143 432.119 398.59 432.119 397.946C432.119 397.317 432.024 396.762 431.835 396.281C431.645 395.8 431.365 395.423 430.994 395.15C430.622 394.877 430.164 394.741 429.619 394.741C429.05 394.741 428.577 394.885 428.198 395.173C427.823 395.461 427.541 395.847 427.352 396.332C427.166 396.817 427.073 397.355 427.073 397.946C427.073 398.552 427.168 399.088 427.357 399.554C427.55 400.016 427.835 400.379 428.21 400.644C428.588 400.906 429.058 401.037 429.619 401.037ZM436.755 405.65C436.528 405.65 436.325 405.631 436.147 405.593C435.969 405.559 435.846 405.525 435.778 405.491L436.119 404.309C436.444 404.393 436.732 404.423 436.982 404.4C437.232 404.377 437.454 404.266 437.647 404.065C437.844 403.868 438.024 403.548 438.187 403.105L438.437 402.423L435.21 393.65H436.664L439.073 400.605H439.164L441.573 393.65H443.028L439.323 403.65C439.156 404.101 438.95 404.474 438.704 404.769C438.458 405.069 438.172 405.29 437.846 405.434C437.524 405.578 437.16 405.65 436.755 405.65Z" fill="white" fill-opacity="0.94"/>
<defs>
<linearGradient id="paint0_linear_8956_2436" x1="488" y1="345.377" x2="20.8769" y2="345.377" gradientUnits="userSpaceOnUse">
<stop stop-color="white" stop-opacity="0"/>
<stop offset="0.187938" stop-color="white"/>
<stop offset="0.830743" stop-color="white" stop-opacity="0.992202"/>
<stop offset="1" stop-color="white" stop-opacity="0"/>
</linearGradient>
</defs>
</svg>
