<svg width="97" height="97" viewBox="0 0 97 97" fill="none" xmlns="http://www.w3.org/2000/svg">
<g filter="url(#filter0_d_6408_15615)">
<circle cx="48.7988" cy="48.9492" r="28" fill="black"/>
<circle cx="48.7988" cy="48.9492" r="28" fill="white" fill-opacity="0.08"/>
<circle cx="48.7988" cy="48.9492" r="28" fill="url(#paint0_linear_6408_15615)" fill-opacity="0.22"/>
<circle cx="48.7988" cy="48.9492" r="27.5" stroke="url(#paint1_linear_6408_15615)" stroke-opacity="0.3"/>
</g>
<path opacity="0.8" fill-rule="evenodd" clip-rule="evenodd" d="M48.7988 62.9492C56.5308 62.9492 62.7988 56.6812 62.7988 48.9492C62.7988 41.2172 56.5308 34.9492 48.7988 34.9492C41.0668 34.9492 34.7988 41.2172 34.7988 48.9492C34.7988 56.6812 41.0668 62.9492 48.7988 62.9492ZM44.8568 44.1478C44.8568 43.4207 44.8605 43.401 45.0121 43.3363C45.1163 43.2918 52.4445 43.2886 52.5327 43.333C52.5645 43.349 52.6132 43.392 52.641 43.4286C52.6868 43.4891 52.6922 43.5331 52.6999 43.9087C52.7109 44.4483 52.697 44.5554 52.6036 44.6468L52.5313 44.7176H51.462C50.8739 44.7176 50.3928 44.7248 50.3928 44.7336C50.3928 44.7425 50.4356 44.8141 50.4878 44.8928C50.6312 45.1085 50.791 45.4557 50.8683 45.7195L50.9374 45.9553L51.7502 45.967L52.5631 45.9788L52.6333 46.0558L52.7035 46.1328V46.6694C52.7035 47.2562 52.6995 47.275 52.5588 47.3463C52.5014 47.3754 52.3556 47.3815 51.7217 47.3815H50.9541L50.9233 47.5502C50.8795 47.7904 50.7688 48.1133 50.6458 48.3598C50.1263 49.4007 49.0498 50.0937 47.6258 50.3037C47.5271 50.3183 47.4418 50.3346 47.4363 50.34C47.4308 50.3454 47.5934 50.528 47.7977 50.7457C48.5076 51.5023 49.5986 52.7477 50.7578 54.1247C51.4039 54.8922 51.5218 55.0232 51.5017 55.1277C51.496 55.1571 51.4794 55.1845 51.4606 55.2233C51.3883 55.3726 51.3845 55.3731 50.3715 55.3731C49.8658 55.3731 49.4309 55.3633 49.3983 55.3512C49.3656 55.339 49.0256 54.9646 48.6331 54.5084C47.3275 52.991 46.2239 51.7527 45.3465 50.8206C45.1056 50.5648 44.8969 50.3341 44.8827 50.308C44.8661 50.2777 44.8568 50.039 44.8568 49.6439C44.8568 49.1183 44.8625 49.0176 44.8957 48.9627C44.9105 48.9381 44.9224 48.9182 44.9381 48.9019C45.0058 48.8317 45.1441 48.8296 45.8918 48.8167C46.6118 48.8042 46.7911 48.794 47.0316 48.7517C47.7199 48.6308 48.2366 48.37 48.5551 47.9828C48.6804 47.8305 48.8187 47.5757 48.8444 47.45L48.8584 47.3815H46.9647C45.3317 47.3815 45.0614 47.3766 45.0015 47.3463C44.8607 47.275 44.8568 47.2564 44.8568 46.6667V46.1273L44.9386 46.0472L45.0204 45.967H46.8762C47.8969 45.967 48.732 45.9579 48.732 45.9468C48.732 45.9226 48.6283 45.7699 48.5488 45.677C48.3684 45.4662 48.0332 45.2651 47.685 45.1587C47.2763 45.0339 47.1074 45.0178 46.0482 45.0027C45.1712 44.9903 45.0305 44.9886 44.9513 44.918C44.9358 44.9041 44.9227 44.8876 44.9068 44.8678C44.8589 44.8082 44.8568 44.778 44.8568 44.1478Z" fill="white" fill-opacity="0.94"/>
<defs>
<filter id="filter0_d_6408_15615" x="0.798828" y="0.949219" width="96" height="96" filterUnits="userSpaceOnUse" color-interpolation-filters="sRGB">
<feFlood flood-opacity="0" result="BackgroundImageFix"/>
<feColorMatrix in="SourceAlpha" type="matrix" values="0 0 0 0 0 0 0 0 0 0 0 0 0 0 0 0 0 0 127 0" result="hardAlpha"/>
<feOffset/>
<feGaussianBlur stdDeviation="10"/>
<feComposite in2="hardAlpha" operator="out"/>
<feColorMatrix type="matrix" values="0 0 0 0 0 0 0 0 0 0 0 0 0 0 0 0 0 0 0.55 0"/>
<feBlend mode="normal" in2="BackgroundImageFix" result="effect1_dropShadow_6408_15615"/>
<feBlend mode="normal" in="SourceGraphic" in2="effect1_dropShadow_6408_15615" result="shape"/>
</filter>
<linearGradient id="paint0_linear_6408_15615" x1="48.7988" y1="76.9492" x2="48.7988" y2="41.2492" gradientUnits="userSpaceOnUse">
<stop stop-color="#A7BF8A"/>
<stop offset="1" stop-color="#A7BF8A" stop-opacity="0.4"/>
</linearGradient>
<linearGradient id="paint1_linear_6408_15615" x1="48.7988" y1="20.9492" x2="48.7988" y2="99.3492" gradientUnits="userSpaceOnUse">
<stop stop-color="white"/>
<stop offset="1" stop-color="white" stop-opacity="0"/>
</linearGradient>
</defs>
</svg>
