<svg xmlns="http://www.w3.org/2000/svg" width="60" height="60" fill="none"><circle cx="30" cy="30" r="30" fill="url(#a)"/><path fill="#fff" fill-rule="evenodd" d="M25.767 26.691h8.467c.581 0 1.083 0 1.496.034.436.036.87.114 1.287.327a3.31 3.31 0 0 1 1.446 1.446c.213.417.291.851.327 1.287.034.413.034.915.034 1.496v5.159c0 .581 0 1.083-.034 1.496-.035.436-.114.87-.327 1.287a3.308 3.308 0 0 1-1.446 1.446c-.417.213-.85.291-1.287.327-.413.034-.915.034-1.496.034h-8.467c-.582 0-1.083 0-1.497-.034-.436-.036-.87-.114-1.287-.327a3.308 3.308 0 0 1-1.446-1.446c-.212-.417-.29-.851-.326-1.287a19.678 19.678 0 0 1-.034-1.496v-5.16c0-.581 0-1.083.034-1.496.035-.436.114-.87.326-1.287a3.31 3.31 0 0 1 1.446-1.446c.418-.213.851-.291 1.287-.327.414-.034.915-.034 1.497-.034zM30 33.31c-.609 0-1.103.494-1.103 1.103v1.103a1.103 1.103 0 1 0 2.206 0v-1.103c0-.61-.494-1.103-1.103-1.103z" clip-rule="evenodd"/><path fill="#fff" fill-rule="evenodd" d="M25.588 23.384a4.412 4.412 0 0 1 8.823 0v3.31h-2.206v-3.31a2.206 2.206 0 1 0-4.411 0v3.31h-2.206v-3.31z" clip-rule="evenodd"/><defs><linearGradient id="a" x1="31.875" x2="31.875" y1="0" y2="60" gradientUnits="userSpaceOnUse"><stop stop-color="#67B6B2"/><stop offset=".489" stop-color="#2D9B95"/><stop offset="1" stop-color="#2D9B95"/></linearGradient></defs></svg>